<mxfile host="app.diagrams.net" modified="2022-05-04T10:56:15.758Z" agent="5.0 (Windows NT 10.0; Win64; x64) AppleWebKit/537.36 (KHTML, like Gecko) Chrome/99.0.4844.84 Safari/537.36 OPR/85.0.4341.72" etag="jSB3nYZBdkJiUbacCESx" version="17.5.0" type="github" pages="4">
  <diagram id="gBOHapYLxTFglMv0nuEM" name="Overall">
    <mxGraphModel dx="1379" dy="804" grid="1" gridSize="10" guides="1" tooltips="1" connect="1" arrows="1" fold="1" page="1" pageScale="1" pageWidth="827" pageHeight="1169" math="0" shadow="0">
      <root>
        <mxCell id="0" />
        <mxCell id="1" parent="0" />
        <mxCell id="zj3hgC7zW5mvOI4B6ktB-12" style="edgeStyle=orthogonalEdgeStyle;rounded=0;orthogonalLoop=1;jettySize=auto;html=1;entryX=0.5;entryY=0;entryDx=0;entryDy=0;" parent="1" source="lg_Qg1NvkmLlpuCnKvFj-1" target="zj3hgC7zW5mvOI4B6ktB-10" edge="1">
          <mxGeometry relative="1" as="geometry" />
        </mxCell>
        <mxCell id="lg_Qg1NvkmLlpuCnKvFj-1" value="(Input)&lt;br&gt;Score submitted" style="rounded=1;whiteSpace=wrap;html=1;fillColor=#d5e8d4;strokeColor=#82b366;" parent="1" vertex="1">
          <mxGeometry x="50" y="155" width="120" height="60" as="geometry" />
        </mxCell>
        <mxCell id="lg_Qg1NvkmLlpuCnKvFj-19" value="(Output)&lt;br&gt;Display score on profile and redistribute gains" style="rounded=1;whiteSpace=wrap;html=1;fillColor=#d5e8d4;strokeColor=#82b366;" parent="1" vertex="1">
          <mxGeometry x="50" y="355" width="120" height="70" as="geometry" />
        </mxCell>
        <mxCell id="MvoduHrLGdgIYtSObwBp-1" value="Local API&lt;br&gt;is the score in the users top 100" style="rounded=0;whiteSpace=wrap;html=1;fillColor=#dae8fc;strokeColor=#6c8ebf;" parent="1" vertex="1">
          <mxGeometry x="230" y="250" width="120" height="60" as="geometry" />
        </mxCell>
        <mxCell id="Qkcbqx2OCl06R2R4srCH-1" value="" style="endArrow=classic;html=1;rounded=0;exitX=0.5;exitY=0;exitDx=0;exitDy=0;" parent="1" source="MvoduHrLGdgIYtSObwBp-1" edge="1">
          <mxGeometry relative="1" as="geometry">
            <mxPoint x="290" y="200" as="sourcePoint" />
            <mxPoint x="290" y="200" as="targetPoint" />
          </mxGeometry>
        </mxCell>
        <mxCell id="Qkcbqx2OCl06R2R4srCH-2" value="No" style="edgeLabel;resizable=0;html=1;align=center;verticalAlign=middle;rounded=0;" parent="Qkcbqx2OCl06R2R4srCH-1" connectable="0" vertex="1">
          <mxGeometry relative="1" as="geometry" />
        </mxCell>
        <mxCell id="Qkcbqx2OCl06R2R4srCH-4" value="Ignore score" style="rounded=1;whiteSpace=wrap;html=1;fillColor=#d5e8d4;strokeColor=#82b366;" parent="1" vertex="1">
          <mxGeometry x="250" y="170" width="80" height="30" as="geometry" />
        </mxCell>
        <mxCell id="sG2nJXuqZhIjSHaetnbC-1" value="" style="endArrow=classic;html=1;rounded=0;exitX=1;exitY=0.5;exitDx=0;exitDy=0;entryX=0;entryY=0.5;entryDx=0;entryDy=0;" parent="1" source="MvoduHrLGdgIYtSObwBp-1" target="sG2nJXuqZhIjSHaetnbC-3" edge="1">
          <mxGeometry relative="1" as="geometry">
            <mxPoint x="300" y="260" as="sourcePoint" />
            <mxPoint x="390" y="280" as="targetPoint" />
          </mxGeometry>
        </mxCell>
        <mxCell id="sG2nJXuqZhIjSHaetnbC-3" value="osu! API&lt;br&gt;is the score his own personal best" style="rounded=0;whiteSpace=wrap;html=1;fillColor=#f8cecc;strokeColor=#b85450;" parent="1" vertex="1">
          <mxGeometry x="410" y="250" width="120" height="60" as="geometry" />
        </mxCell>
        <mxCell id="sG2nJXuqZhIjSHaetnbC-6" value="" style="endArrow=classic;html=1;rounded=0;exitX=0.5;exitY=0;exitDx=0;exitDy=0;entryX=0.5;entryY=1;entryDx=0;entryDy=0;" parent="1" source="sG2nJXuqZhIjSHaetnbC-3" target="zj3hgC7zW5mvOI4B6ktB-1" edge="1">
          <mxGeometry relative="1" as="geometry">
            <mxPoint x="400" y="240" as="sourcePoint" />
            <mxPoint x="470" y="200" as="targetPoint" />
          </mxGeometry>
        </mxCell>
        <mxCell id="sG2nJXuqZhIjSHaetnbC-7" value="No" style="edgeLabel;resizable=0;html=1;align=center;verticalAlign=middle;rounded=0;" parent="sG2nJXuqZhIjSHaetnbC-6" connectable="0" vertex="1">
          <mxGeometry relative="1" as="geometry" />
        </mxCell>
        <mxCell id="zj3hgC7zW5mvOI4B6ktB-7" style="edgeStyle=orthogonalEdgeStyle;rounded=0;orthogonalLoop=1;jettySize=auto;html=1;entryX=0;entryY=0.5;entryDx=0;entryDy=0;" parent="1" source="sG2nJXuqZhIjSHaetnbC-8" target="sG2nJXuqZhIjSHaetnbC-11" edge="1">
          <mxGeometry relative="1" as="geometry">
            <mxPoint x="750" y="340" as="targetPoint" />
          </mxGeometry>
        </mxCell>
        <mxCell id="sG2nJXuqZhIjSHaetnbC-8" value="Local API&lt;br&gt;is the beatmap already calculated" style="rounded=0;whiteSpace=wrap;html=1;fillColor=#dae8fc;strokeColor=#6c8ebf;" parent="1" vertex="1">
          <mxGeometry x="590" y="250" width="120" height="60" as="geometry" />
        </mxCell>
        <mxCell id="sG2nJXuqZhIjSHaetnbC-9" value="" style="endArrow=classic;html=1;rounded=0;exitX=1;exitY=0.5;exitDx=0;exitDy=0;entryX=0;entryY=0.5;entryDx=0;entryDy=0;edgeStyle=orthogonalEdgeStyle;" parent="1" source="sG2nJXuqZhIjSHaetnbC-3" target="sG2nJXuqZhIjSHaetnbC-8" edge="1">
          <mxGeometry relative="1" as="geometry">
            <mxPoint x="560" y="400" as="sourcePoint" />
            <mxPoint x="620" y="400" as="targetPoint" />
          </mxGeometry>
        </mxCell>
        <mxCell id="sG2nJXuqZhIjSHaetnbC-11" value="Local API&lt;br&gt;fetch corresponding average for the layer" style="rounded=0;whiteSpace=wrap;html=1;fillColor=#dae8fc;strokeColor=#6c8ebf;" parent="1" vertex="1">
          <mxGeometry x="770" y="250" width="120" height="60" as="geometry" />
        </mxCell>
        <mxCell id="zj3hgC7zW5mvOI4B6ktB-6" style="edgeStyle=orthogonalEdgeStyle;rounded=0;orthogonalLoop=1;jettySize=auto;html=1;entryX=0.5;entryY=0;entryDx=0;entryDy=0;" parent="1" source="sG2nJXuqZhIjSHaetnbC-12" target="sG2nJXuqZhIjSHaetnbC-11" edge="1">
          <mxGeometry relative="1" as="geometry" />
        </mxCell>
        <mxCell id="sG2nJXuqZhIjSHaetnbC-12" value="Calculate beatmap" style="rounded=0;whiteSpace=wrap;html=1;fillColor=#fff2cc;strokeColor=#d6b656;" parent="1" vertex="1">
          <mxGeometry x="590" y="155" width="120" height="60" as="geometry" />
        </mxCell>
        <mxCell id="zj3hgC7zW5mvOI4B6ktB-1" value="Ignore score" style="rounded=1;whiteSpace=wrap;html=1;fillColor=#d5e8d4;strokeColor=#82b366;" parent="1" vertex="1">
          <mxGeometry x="430" y="170" width="80" height="30" as="geometry" />
        </mxCell>
        <mxCell id="zj3hgC7zW5mvOI4B6ktB-11" style="edgeStyle=orthogonalEdgeStyle;rounded=0;orthogonalLoop=1;jettySize=auto;html=1;entryX=0;entryY=0.5;entryDx=0;entryDy=0;" parent="1" source="zj3hgC7zW5mvOI4B6ktB-10" target="MvoduHrLGdgIYtSObwBp-1" edge="1">
          <mxGeometry relative="1" as="geometry" />
        </mxCell>
        <mxCell id="zj3hgC7zW5mvOI4B6ktB-10" value="osu! API&lt;br&gt;fetch recent scores&lt;br&gt;(periodic)" style="rounded=0;whiteSpace=wrap;html=1;fillColor=#f8cecc;strokeColor=#b85450;" parent="1" vertex="1">
          <mxGeometry x="50" y="250" width="120" height="60" as="geometry" />
        </mxCell>
        <mxCell id="zj3hgC7zW5mvOI4B6ktB-13" value="" style="endArrow=classic;html=1;rounded=0;exitX=0.5;exitY=0;exitDx=0;exitDy=0;entryX=0.5;entryY=1;entryDx=0;entryDy=0;" parent="1" source="sG2nJXuqZhIjSHaetnbC-8" target="sG2nJXuqZhIjSHaetnbC-12" edge="1">
          <mxGeometry relative="1" as="geometry">
            <mxPoint x="590" y="320" as="sourcePoint" />
            <mxPoint x="690" y="320" as="targetPoint" />
          </mxGeometry>
        </mxCell>
        <mxCell id="zj3hgC7zW5mvOI4B6ktB-14" value="No" style="edgeLabel;resizable=0;html=1;align=center;verticalAlign=middle;rounded=0;" parent="zj3hgC7zW5mvOI4B6ktB-13" connectable="0" vertex="1">
          <mxGeometry relative="1" as="geometry" />
        </mxCell>
        <mxCell id="zj3hgC7zW5mvOI4B6ktB-20" style="edgeStyle=orthogonalEdgeStyle;rounded=0;orthogonalLoop=1;jettySize=auto;html=1;entryX=1;entryY=0.5;entryDx=0;entryDy=0;" parent="1" source="zj3hgC7zW5mvOI4B6ktB-16" target="zj3hgC7zW5mvOI4B6ktB-18" edge="1">
          <mxGeometry relative="1" as="geometry" />
        </mxCell>
        <mxCell id="zj3hgC7zW5mvOI4B6ktB-16" value="Calculate the difference between both pp values" style="rounded=0;whiteSpace=wrap;html=1;fillColor=#fff2cc;strokeColor=#d6b656;" parent="1" vertex="1">
          <mxGeometry x="770" y="360" width="120" height="60" as="geometry" />
        </mxCell>
        <mxCell id="zj3hgC7zW5mvOI4B6ktB-17" value="" style="endArrow=classic;html=1;rounded=0;exitX=0.5;exitY=1;exitDx=0;exitDy=0;entryX=0.5;entryY=0;entryDx=0;entryDy=0;" parent="1" source="sG2nJXuqZhIjSHaetnbC-11" target="zj3hgC7zW5mvOI4B6ktB-16" edge="1">
          <mxGeometry width="50" height="50" relative="1" as="geometry">
            <mxPoint x="640" y="330" as="sourcePoint" />
            <mxPoint x="690" y="280" as="targetPoint" />
          </mxGeometry>
        </mxCell>
        <mxCell id="zj3hgC7zW5mvOI4B6ktB-21" style="edgeStyle=orthogonalEdgeStyle;rounded=0;orthogonalLoop=1;jettySize=auto;html=1;entryX=1;entryY=0.5;entryDx=0;entryDy=0;" parent="1" source="zj3hgC7zW5mvOI4B6ktB-18" target="zj3hgC7zW5mvOI4B6ktB-19" edge="1">
          <mxGeometry relative="1" as="geometry" />
        </mxCell>
        <mxCell id="zj3hgC7zW5mvOI4B6ktB-18" value="Convert difference into a multiplier" style="rounded=0;whiteSpace=wrap;html=1;fillColor=#fff2cc;strokeColor=#d6b656;" parent="1" vertex="1">
          <mxGeometry x="590" y="360" width="120" height="60" as="geometry" />
        </mxCell>
        <mxCell id="zj3hgC7zW5mvOI4B6ktB-22" style="edgeStyle=orthogonalEdgeStyle;rounded=0;orthogonalLoop=1;jettySize=auto;html=1;entryX=1;entryY=0.5;entryDx=0;entryDy=0;" parent="1" source="zj3hgC7zW5mvOI4B6ktB-19" target="lg_Qg1NvkmLlpuCnKvFj-19" edge="1">
          <mxGeometry relative="1" as="geometry" />
        </mxCell>
        <mxCell id="zj3hgC7zW5mvOI4B6ktB-19" value="Multiply original with corrected version using uniqueness&amp;nbsp;" style="rounded=0;whiteSpace=wrap;html=1;fillColor=#fff2cc;strokeColor=#d6b656;" parent="1" vertex="1">
          <mxGeometry x="404" y="360" width="120" height="60" as="geometry" />
        </mxCell>
      </root>
    </mxGraphModel>
  </diagram>
  <diagram id="sr7mQdud6GQ2Z5sx-eT6" name="Layers">
    <mxGraphModel dx="1379" dy="804" grid="1" gridSize="10" guides="1" tooltips="1" connect="1" arrows="1" fold="1" page="1" pageScale="1" pageWidth="827" pageHeight="1169" math="0" shadow="0">
      <root>
        <mxCell id="0" />
        <mxCell id="1" parent="0" />
        <mxCell id="JrKunhw10MkNveIYfxZS-3" value="Score mods" style="rounded=0;whiteSpace=wrap;html=1;fillColor=#d5e8d4;strokeColor=#82b366;" vertex="1" parent="1">
          <mxGeometry x="84" y="40" width="120" height="60" as="geometry" />
        </mxCell>
        <mxCell id="JrKunhw10MkNveIYfxZS-5" value="Contains DT/NC and HR ?" style="rounded=1;whiteSpace=wrap;html=1;fillColor=#fff2cc;strokeColor=#d6b656;" vertex="1" parent="1">
          <mxGeometry x="84" y="140" width="120" height="60" as="geometry" />
        </mxCell>
        <mxCell id="JrKunhw10MkNveIYfxZS-6" value="" style="endArrow=classic;html=1;rounded=0;entryX=0.5;entryY=0;entryDx=0;entryDy=0;exitX=0.5;exitY=1;exitDx=0;exitDy=0;" edge="1" parent="1" source="JrKunhw10MkNveIYfxZS-5" target="JrKunhw10MkNveIYfxZS-7">
          <mxGeometry width="50" height="50" relative="1" as="geometry">
            <mxPoint x="390" y="140" as="sourcePoint" />
            <mxPoint x="440" y="90" as="targetPoint" />
          </mxGeometry>
        </mxCell>
        <mxCell id="JrKunhw10MkNveIYfxZS-8" value="Yes" style="edgeLabel;html=1;align=center;verticalAlign=middle;resizable=0;points=[];" vertex="1" connectable="0" parent="JrKunhw10MkNveIYfxZS-6">
          <mxGeometry x="-0.269" relative="1" as="geometry">
            <mxPoint as="offset" />
          </mxGeometry>
        </mxCell>
        <mxCell id="JrKunhw10MkNveIYfxZS-7" value="DTHR Layer" style="rounded=0;whiteSpace=wrap;html=1;fillColor=#f8cecc;strokeColor=#b85450;" vertex="1" parent="1">
          <mxGeometry x="84" y="240" width="120" height="60" as="geometry" />
        </mxCell>
        <mxCell id="JrKunhw10MkNveIYfxZS-9" value="" style="endArrow=classic;html=1;rounded=0;exitX=0.5;exitY=1;exitDx=0;exitDy=0;entryX=0.5;entryY=0;entryDx=0;entryDy=0;" edge="1" parent="1" source="JrKunhw10MkNveIYfxZS-3" target="JrKunhw10MkNveIYfxZS-5">
          <mxGeometry width="50" height="50" relative="1" as="geometry">
            <mxPoint x="330" y="220" as="sourcePoint" />
            <mxPoint x="380" y="170" as="targetPoint" />
          </mxGeometry>
        </mxCell>
        <mxCell id="JrKunhw10MkNveIYfxZS-10" value="Contains FL ?&lt;br&gt;(HT excluded)" style="rounded=1;whiteSpace=wrap;html=1;fillColor=#fff2cc;strokeColor=#d6b656;" vertex="1" parent="1">
          <mxGeometry x="250" y="140" width="120" height="60" as="geometry" />
        </mxCell>
        <mxCell id="JrKunhw10MkNveIYfxZS-11" value="" style="endArrow=classic;html=1;rounded=0;entryX=0.5;entryY=0;entryDx=0;entryDy=0;exitX=0.5;exitY=1;exitDx=0;exitDy=0;" edge="1" parent="1" source="JrKunhw10MkNveIYfxZS-10" target="JrKunhw10MkNveIYfxZS-13">
          <mxGeometry width="50" height="50" relative="1" as="geometry">
            <mxPoint x="556" y="140" as="sourcePoint" />
            <mxPoint x="606" y="90" as="targetPoint" />
          </mxGeometry>
        </mxCell>
        <mxCell id="JrKunhw10MkNveIYfxZS-12" value="Yes" style="edgeLabel;html=1;align=center;verticalAlign=middle;resizable=0;points=[];" vertex="1" connectable="0" parent="JrKunhw10MkNveIYfxZS-11">
          <mxGeometry x="-0.269" relative="1" as="geometry">
            <mxPoint as="offset" />
          </mxGeometry>
        </mxCell>
        <mxCell id="JrKunhw10MkNveIYfxZS-13" value="FL Layer" style="rounded=0;whiteSpace=wrap;html=1;fillColor=#f8cecc;strokeColor=#b85450;" vertex="1" parent="1">
          <mxGeometry x="250" y="240" width="120" height="60" as="geometry" />
        </mxCell>
        <mxCell id="JrKunhw10MkNveIYfxZS-14" value="" style="endArrow=classic;html=1;rounded=0;exitX=1;exitY=0.5;exitDx=0;exitDy=0;entryX=0;entryY=0.5;entryDx=0;entryDy=0;" edge="1" parent="1" source="JrKunhw10MkNveIYfxZS-5" target="JrKunhw10MkNveIYfxZS-10">
          <mxGeometry width="50" height="50" relative="1" as="geometry">
            <mxPoint x="330" y="220" as="sourcePoint" />
            <mxPoint x="230" y="170" as="targetPoint" />
          </mxGeometry>
        </mxCell>
        <mxCell id="JrKunhw10MkNveIYfxZS-15" value="No" style="edgeLabel;html=1;align=center;verticalAlign=middle;resizable=0;points=[];" vertex="1" connectable="0" parent="JrKunhw10MkNveIYfxZS-14">
          <mxGeometry x="-0.236" y="-1" relative="1" as="geometry">
            <mxPoint y="-1" as="offset" />
          </mxGeometry>
        </mxCell>
        <mxCell id="JrKunhw10MkNveIYfxZS-16" value="Contains EZ ?&lt;br&gt;(HT excluded)" style="rounded=1;whiteSpace=wrap;html=1;fillColor=#fff2cc;strokeColor=#d6b656;" vertex="1" parent="1">
          <mxGeometry x="414" y="140" width="120" height="60" as="geometry" />
        </mxCell>
        <mxCell id="JrKunhw10MkNveIYfxZS-17" value="" style="endArrow=classic;html=1;rounded=0;entryX=0.5;entryY=0;entryDx=0;entryDy=0;exitX=0.5;exitY=1;exitDx=0;exitDy=0;" edge="1" parent="1" source="JrKunhw10MkNveIYfxZS-16" target="JrKunhw10MkNveIYfxZS-19">
          <mxGeometry width="50" height="50" relative="1" as="geometry">
            <mxPoint x="720" y="140" as="sourcePoint" />
            <mxPoint x="770" y="90" as="targetPoint" />
          </mxGeometry>
        </mxCell>
        <mxCell id="JrKunhw10MkNveIYfxZS-18" value="Yes" style="edgeLabel;html=1;align=center;verticalAlign=middle;resizable=0;points=[];" vertex="1" connectable="0" parent="JrKunhw10MkNveIYfxZS-17">
          <mxGeometry x="-0.269" relative="1" as="geometry">
            <mxPoint as="offset" />
          </mxGeometry>
        </mxCell>
        <mxCell id="JrKunhw10MkNveIYfxZS-19" value="EZ Layer" style="rounded=0;whiteSpace=wrap;html=1;fillColor=#f8cecc;strokeColor=#b85450;" vertex="1" parent="1">
          <mxGeometry x="414" y="240" width="120" height="60" as="geometry" />
        </mxCell>
        <mxCell id="JrKunhw10MkNveIYfxZS-20" value="Contains DT/NC ?" style="rounded=1;whiteSpace=wrap;html=1;fillColor=#fff2cc;strokeColor=#d6b656;" vertex="1" parent="1">
          <mxGeometry x="578" y="140" width="120" height="60" as="geometry" />
        </mxCell>
        <mxCell id="JrKunhw10MkNveIYfxZS-21" value="" style="endArrow=classic;html=1;rounded=0;entryX=0.5;entryY=0;entryDx=0;entryDy=0;exitX=0.5;exitY=1;exitDx=0;exitDy=0;" edge="1" parent="1" source="JrKunhw10MkNveIYfxZS-20" target="JrKunhw10MkNveIYfxZS-23">
          <mxGeometry width="50" height="50" relative="1" as="geometry">
            <mxPoint x="884" y="140" as="sourcePoint" />
            <mxPoint x="934" y="90" as="targetPoint" />
          </mxGeometry>
        </mxCell>
        <mxCell id="JrKunhw10MkNveIYfxZS-22" value="Yes" style="edgeLabel;html=1;align=center;verticalAlign=middle;resizable=0;points=[];" vertex="1" connectable="0" parent="JrKunhw10MkNveIYfxZS-21">
          <mxGeometry x="-0.269" relative="1" as="geometry">
            <mxPoint as="offset" />
          </mxGeometry>
        </mxCell>
        <mxCell id="JrKunhw10MkNveIYfxZS-23" value="DT Layer" style="rounded=0;whiteSpace=wrap;html=1;fillColor=#f8cecc;strokeColor=#b85450;" vertex="1" parent="1">
          <mxGeometry x="578" y="240" width="120" height="60" as="geometry" />
        </mxCell>
        <mxCell id="JrKunhw10MkNveIYfxZS-24" value="" style="endArrow=classic;html=1;rounded=0;exitX=1;exitY=0.5;exitDx=0;exitDy=0;entryX=0;entryY=0.5;entryDx=0;entryDy=0;" edge="1" parent="1" source="JrKunhw10MkNveIYfxZS-16" target="JrKunhw10MkNveIYfxZS-20">
          <mxGeometry width="50" height="50" relative="1" as="geometry">
            <mxPoint x="660" y="220" as="sourcePoint" />
            <mxPoint x="560" y="170" as="targetPoint" />
          </mxGeometry>
        </mxCell>
        <mxCell id="JrKunhw10MkNveIYfxZS-25" value="No" style="edgeLabel;html=1;align=center;verticalAlign=middle;resizable=0;points=[];" vertex="1" connectable="0" parent="JrKunhw10MkNveIYfxZS-24">
          <mxGeometry x="-0.236" y="-1" relative="1" as="geometry">
            <mxPoint y="-1" as="offset" />
          </mxGeometry>
        </mxCell>
        <mxCell id="JrKunhw10MkNveIYfxZS-26" value="" style="endArrow=classic;html=1;rounded=0;exitX=1;exitY=0.5;exitDx=0;exitDy=0;entryX=0;entryY=0.5;entryDx=0;entryDy=0;" edge="1" parent="1" source="JrKunhw10MkNveIYfxZS-10" target="JrKunhw10MkNveIYfxZS-16">
          <mxGeometry width="50" height="50" relative="1" as="geometry">
            <mxPoint x="391" y="120" as="sourcePoint" />
            <mxPoint x="437" y="120" as="targetPoint" />
          </mxGeometry>
        </mxCell>
        <mxCell id="JrKunhw10MkNveIYfxZS-27" value="No" style="edgeLabel;html=1;align=center;verticalAlign=middle;resizable=0;points=[];" vertex="1" connectable="0" parent="JrKunhw10MkNveIYfxZS-26">
          <mxGeometry x="-0.236" y="-1" relative="1" as="geometry">
            <mxPoint y="-1" as="offset" />
          </mxGeometry>
        </mxCell>
        <mxCell id="JrKunhw10MkNveIYfxZS-28" value="Contains HR ?&lt;br&gt;(HT excluded)" style="rounded=1;whiteSpace=wrap;html=1;fillColor=#fff2cc;strokeColor=#d6b656;" vertex="1" parent="1">
          <mxGeometry x="577.9999999999999" y="330" width="120" height="60" as="geometry" />
        </mxCell>
        <mxCell id="JrKunhw10MkNveIYfxZS-29" value="" style="endArrow=classic;html=1;rounded=0;entryX=0.5;entryY=0;entryDx=0;entryDy=0;exitX=0.5;exitY=1;exitDx=0;exitDy=0;" edge="1" parent="1" source="JrKunhw10MkNveIYfxZS-28" target="JrKunhw10MkNveIYfxZS-31">
          <mxGeometry width="50" height="50" relative="1" as="geometry">
            <mxPoint x="883.9999999999999" y="330" as="sourcePoint" />
            <mxPoint x="934" y="280" as="targetPoint" />
          </mxGeometry>
        </mxCell>
        <mxCell id="JrKunhw10MkNveIYfxZS-30" value="Yes" style="edgeLabel;html=1;align=center;verticalAlign=middle;resizable=0;points=[];" vertex="1" connectable="0" parent="JrKunhw10MkNveIYfxZS-29">
          <mxGeometry x="-0.269" relative="1" as="geometry">
            <mxPoint as="offset" />
          </mxGeometry>
        </mxCell>
        <mxCell id="JrKunhw10MkNveIYfxZS-31" value="HR Layer" style="rounded=0;whiteSpace=wrap;html=1;fillColor=#f8cecc;strokeColor=#b85450;" vertex="1" parent="1">
          <mxGeometry x="577.9999999999999" y="430" width="120" height="60" as="geometry" />
        </mxCell>
        <mxCell id="JrKunhw10MkNveIYfxZS-32" value="Contains HD ?&lt;br&gt;(HT excluded)" style="rounded=1;whiteSpace=wrap;html=1;fillColor=#fff2cc;strokeColor=#d6b656;" vertex="1" parent="1">
          <mxGeometry x="413.4999999999999" y="330" width="120" height="60" as="geometry" />
        </mxCell>
        <mxCell id="JrKunhw10MkNveIYfxZS-33" value="" style="endArrow=classic;html=1;rounded=0;entryX=0.5;entryY=0;entryDx=0;entryDy=0;exitX=0.5;exitY=1;exitDx=0;exitDy=0;" edge="1" parent="1" source="JrKunhw10MkNveIYfxZS-32" target="JrKunhw10MkNveIYfxZS-35">
          <mxGeometry width="50" height="50" relative="1" as="geometry">
            <mxPoint x="719.5" y="330" as="sourcePoint" />
            <mxPoint x="769.5" y="280" as="targetPoint" />
          </mxGeometry>
        </mxCell>
        <mxCell id="JrKunhw10MkNveIYfxZS-34" value="Yes" style="edgeLabel;html=1;align=center;verticalAlign=middle;resizable=0;points=[];" vertex="1" connectable="0" parent="JrKunhw10MkNveIYfxZS-33">
          <mxGeometry x="-0.269" relative="1" as="geometry">
            <mxPoint as="offset" />
          </mxGeometry>
        </mxCell>
        <mxCell id="JrKunhw10MkNveIYfxZS-35" value="HD Layer" style="rounded=0;whiteSpace=wrap;html=1;fillColor=#f8cecc;strokeColor=#b85450;" vertex="1" parent="1">
          <mxGeometry x="413.4999999999999" y="430" width="120" height="60" as="geometry" />
        </mxCell>
        <mxCell id="JrKunhw10MkNveIYfxZS-49" value="Contains HT ?" style="rounded=1;whiteSpace=wrap;html=1;fillColor=#fff2cc;strokeColor=#d6b656;" vertex="1" parent="1">
          <mxGeometry x="250.0000000000001" y="330" width="120" height="60" as="geometry" />
        </mxCell>
        <mxCell id="JrKunhw10MkNveIYfxZS-50" value="" style="endArrow=classic;html=1;rounded=0;entryX=0.5;entryY=0;entryDx=0;entryDy=0;exitX=0.5;exitY=1;exitDx=0;exitDy=0;" edge="1" parent="1" source="JrKunhw10MkNveIYfxZS-49" target="JrKunhw10MkNveIYfxZS-52">
          <mxGeometry width="50" height="50" relative="1" as="geometry">
            <mxPoint x="556.0000000000001" y="330" as="sourcePoint" />
            <mxPoint x="606.0000000000001" y="280" as="targetPoint" />
          </mxGeometry>
        </mxCell>
        <mxCell id="JrKunhw10MkNveIYfxZS-51" value="Yes" style="edgeLabel;html=1;align=center;verticalAlign=middle;resizable=0;points=[];" vertex="1" connectable="0" parent="JrKunhw10MkNveIYfxZS-50">
          <mxGeometry x="-0.269" relative="1" as="geometry">
            <mxPoint as="offset" />
          </mxGeometry>
        </mxCell>
        <mxCell id="JrKunhw10MkNveIYfxZS-52" value="HT Layer" style="rounded=0;whiteSpace=wrap;html=1;fillColor=#f8cecc;strokeColor=#b85450;" vertex="1" parent="1">
          <mxGeometry x="250.0000000000001" y="430" width="120" height="60" as="geometry" />
        </mxCell>
        <mxCell id="JrKunhw10MkNveIYfxZS-56" value="NM Layer" style="rounded=0;whiteSpace=wrap;html=1;fillColor=#f8cecc;strokeColor=#b85450;" vertex="1" parent="1">
          <mxGeometry x="84.00000000000011" y="430" width="120" height="60" as="geometry" />
        </mxCell>
        <mxCell id="JrKunhw10MkNveIYfxZS-61" value="" style="endArrow=classic;html=1;rounded=0;exitX=1;exitY=0.5;exitDx=0;exitDy=0;entryX=1;entryY=0.5;entryDx=0;entryDy=0;edgeStyle=orthogonalEdgeStyle;" edge="1" parent="1" source="JrKunhw10MkNveIYfxZS-20" target="JrKunhw10MkNveIYfxZS-28">
          <mxGeometry width="50" height="50" relative="1" as="geometry">
            <mxPoint x="210" y="420" as="sourcePoint" />
            <mxPoint x="260" y="370" as="targetPoint" />
            <Array as="points">
              <mxPoint x="740" y="170" />
              <mxPoint x="740" y="360" />
            </Array>
          </mxGeometry>
        </mxCell>
        <mxCell id="JrKunhw10MkNveIYfxZS-62" value="No" style="edgeLabel;html=1;align=center;verticalAlign=middle;resizable=0;points=[];" vertex="1" connectable="0" parent="JrKunhw10MkNveIYfxZS-61">
          <mxGeometry x="-0.4526" y="2" relative="1" as="geometry">
            <mxPoint y="67" as="offset" />
          </mxGeometry>
        </mxCell>
        <mxCell id="JrKunhw10MkNveIYfxZS-63" value="" style="endArrow=classic;html=1;rounded=0;exitX=0;exitY=0.5;exitDx=0;exitDy=0;entryX=1;entryY=0.5;entryDx=0;entryDy=0;" edge="1" parent="1" source="JrKunhw10MkNveIYfxZS-28" target="JrKunhw10MkNveIYfxZS-32">
          <mxGeometry width="50" height="50" relative="1" as="geometry">
            <mxPoint x="544" y="180" as="sourcePoint" />
            <mxPoint x="588" y="180" as="targetPoint" />
          </mxGeometry>
        </mxCell>
        <mxCell id="JrKunhw10MkNveIYfxZS-64" value="No" style="edgeLabel;html=1;align=center;verticalAlign=middle;resizable=0;points=[];" vertex="1" connectable="0" parent="JrKunhw10MkNveIYfxZS-63">
          <mxGeometry x="-0.236" y="-1" relative="1" as="geometry">
            <mxPoint y="-1" as="offset" />
          </mxGeometry>
        </mxCell>
        <mxCell id="JrKunhw10MkNveIYfxZS-65" value="" style="endArrow=classic;html=1;rounded=0;exitX=0;exitY=0.5;exitDx=0;exitDy=0;entryX=1;entryY=0.5;entryDx=0;entryDy=0;" edge="1" parent="1" source="JrKunhw10MkNveIYfxZS-32" target="JrKunhw10MkNveIYfxZS-49">
          <mxGeometry width="50" height="50" relative="1" as="geometry">
            <mxPoint x="554" y="190" as="sourcePoint" />
            <mxPoint x="598" y="190" as="targetPoint" />
          </mxGeometry>
        </mxCell>
        <mxCell id="JrKunhw10MkNveIYfxZS-66" value="No" style="edgeLabel;html=1;align=center;verticalAlign=middle;resizable=0;points=[];" vertex="1" connectable="0" parent="JrKunhw10MkNveIYfxZS-65">
          <mxGeometry x="-0.236" y="-1" relative="1" as="geometry">
            <mxPoint y="-1" as="offset" />
          </mxGeometry>
        </mxCell>
        <mxCell id="JrKunhw10MkNveIYfxZS-67" value="" style="endArrow=classic;html=1;rounded=0;exitX=0;exitY=0.5;exitDx=0;exitDy=0;entryX=0.5;entryY=0;entryDx=0;entryDy=0;edgeStyle=orthogonalEdgeStyle;" edge="1" parent="1" source="JrKunhw10MkNveIYfxZS-49" target="JrKunhw10MkNveIYfxZS-56">
          <mxGeometry width="50" height="50" relative="1" as="geometry">
            <mxPoint x="564" y="200" as="sourcePoint" />
            <mxPoint x="608" y="200" as="targetPoint" />
          </mxGeometry>
        </mxCell>
        <mxCell id="JrKunhw10MkNveIYfxZS-68" value="No" style="edgeLabel;html=1;align=center;verticalAlign=middle;resizable=0;points=[];" vertex="1" connectable="0" parent="JrKunhw10MkNveIYfxZS-67">
          <mxGeometry x="-0.236" y="-1" relative="1" as="geometry">
            <mxPoint y="-1" as="offset" />
          </mxGeometry>
        </mxCell>
      </root>
    </mxGraphModel>
  </diagram>
  <diagram id="inudz58KRwahvcOmPmsi" name="Beatmap Recalc">
    <mxGraphModel dx="1379" dy="804" grid="1" gridSize="10" guides="1" tooltips="1" connect="1" arrows="1" fold="1" page="1" pageScale="1" pageWidth="827" pageHeight="1169" math="0" shadow="0">
      <root>
        <mxCell id="0" />
        <mxCell id="1" parent="0" />
        <mxCell id="eHyLhiMhPhKfMF8_1Pdk-3" value="" style="rounded=0;whiteSpace=wrap;html=1;" parent="1" vertex="1">
          <mxGeometry x="770" y="456" width="260" height="88" as="geometry" />
        </mxCell>
        <mxCell id="Xba27FxTtK5NExmoXpWR-1" value="(Input)&lt;br&gt;Beatmap ID" style="rounded=1;whiteSpace=wrap;html=1;fillColor=#d5e8d4;strokeColor=#82b366;" parent="1" vertex="1">
          <mxGeometry x="40" y="110" width="120" height="60" as="geometry" />
        </mxCell>
        <mxCell id="Xba27FxTtK5NExmoXpWR-7" value="" style="endArrow=classic;html=1;rounded=0;entryX=0;entryY=0.5;entryDx=0;entryDy=0;exitX=1;exitY=0.5;exitDx=0;exitDy=0;" parent="1" source="Xba27FxTtK5NExmoXpWR-1" target="1MOXpUZB0HtKqHv8TUn5-1" edge="1">
          <mxGeometry width="50" height="50" relative="1" as="geometry">
            <mxPoint x="-30" y="160" as="sourcePoint" />
            <mxPoint x="40" y="140" as="targetPoint" />
          </mxGeometry>
        </mxCell>
        <mxCell id="Xba27FxTtK5NExmoXpWR-16" value="(Output)&lt;br&gt;Each layer&#39;s Layer Object" style="rounded=1;whiteSpace=wrap;html=1;fillColor=#d5e8d4;strokeColor=#82b366;" parent="1" vertex="1">
          <mxGeometry x="570" y="740" width="120" height="60" as="geometry" />
        </mxCell>
        <mxCell id="1MOXpUZB0HtKqHv8TUn5-1" value="1st layer&lt;br&gt;DT &amp;amp; HR" style="rounded=1;whiteSpace=wrap;html=1;fillColor=#d5e8d4;strokeColor=#82b366;" parent="1" vertex="1">
          <mxGeometry x="214" y="110" width="120" height="60" as="geometry" />
        </mxCell>
        <mxCell id="1MOXpUZB0HtKqHv8TUn5-4" value="" style="endArrow=classic;html=1;rounded=0;exitX=1;exitY=0.5;exitDx=0;exitDy=0;entryX=0;entryY=0.5;entryDx=0;entryDy=0;edgeStyle=orthogonalEdgeStyle;" parent="1" target="1MOXpUZB0HtKqHv8TUn5-1" edge="1">
          <mxGeometry width="50" height="50" relative="1" as="geometry">
            <mxPoint x="160" y="140" as="sourcePoint" />
            <mxPoint x="240" y="260" as="targetPoint" />
            <Array as="points">
              <mxPoint x="190" y="140" />
              <mxPoint x="190" y="140" />
            </Array>
          </mxGeometry>
        </mxCell>
        <mxCell id="1MOXpUZB0HtKqHv8TUn5-6" value="2nd layer&lt;br&gt;FL w/o EZ" style="rounded=1;whiteSpace=wrap;html=1;fillColor=#d5e8d4;strokeColor=#82b366;" parent="1" vertex="1">
          <mxGeometry x="214" y="200" width="120" height="60" as="geometry" />
        </mxCell>
        <mxCell id="1MOXpUZB0HtKqHv8TUn5-8" value="3rd layer&lt;br&gt;EZ" style="rounded=1;whiteSpace=wrap;html=1;fillColor=#d5e8d4;strokeColor=#82b366;" parent="1" vertex="1">
          <mxGeometry x="214" y="290" width="120" height="60" as="geometry" />
        </mxCell>
        <mxCell id="EsyMe4qFXvNcmVhUbAjS-1" value="4th layer&lt;br&gt;DT" style="rounded=1;whiteSpace=wrap;html=1;fillColor=#d5e8d4;strokeColor=#82b366;" parent="1" vertex="1">
          <mxGeometry x="214" y="380" width="120" height="60" as="geometry" />
        </mxCell>
        <mxCell id="EsyMe4qFXvNcmVhUbAjS-2" value="5th layer&lt;br&gt;HR" style="rounded=1;whiteSpace=wrap;html=1;fillColor=#d5e8d4;strokeColor=#82b366;" parent="1" vertex="1">
          <mxGeometry x="214" y="470" width="120" height="60" as="geometry" />
        </mxCell>
        <mxCell id="EsyMe4qFXvNcmVhUbAjS-3" value="6th layer&lt;br&gt;HD" style="rounded=1;whiteSpace=wrap;html=1;fillColor=#d5e8d4;strokeColor=#82b366;" parent="1" vertex="1">
          <mxGeometry x="214" y="560" width="120" height="60" as="geometry" />
        </mxCell>
        <mxCell id="EsyMe4qFXvNcmVhUbAjS-4" value="7th layer&lt;br&gt;HT" style="rounded=1;whiteSpace=wrap;html=1;fillColor=#d5e8d4;strokeColor=#82b366;" parent="1" vertex="1">
          <mxGeometry x="214" y="650" width="120" height="60" as="geometry" />
        </mxCell>
        <mxCell id="VFu_uMZZZMUcZAeUEX4i-1" value="8th layer&lt;br&gt;NoMod" style="rounded=1;whiteSpace=wrap;html=1;fillColor=#d5e8d4;strokeColor=#82b366;" parent="1" vertex="1">
          <mxGeometry x="214" y="740" width="120" height="60" as="geometry" />
        </mxCell>
        <mxCell id="VFu_uMZZZMUcZAeUEX4i-2" value="" style="endArrow=classic;html=1;rounded=0;exitX=1;exitY=0.5;exitDx=0;exitDy=0;entryX=0;entryY=0.5;entryDx=0;entryDy=0;edgeStyle=orthogonalEdgeStyle;" parent="1" target="EsyMe4qFXvNcmVhUbAjS-2" edge="1">
          <mxGeometry width="50" height="50" relative="1" as="geometry">
            <mxPoint x="160" y="140" as="sourcePoint" />
            <mxPoint x="240" y="450" as="targetPoint" />
          </mxGeometry>
        </mxCell>
        <mxCell id="VFu_uMZZZMUcZAeUEX4i-3" value="" style="endArrow=classic;html=1;rounded=0;exitX=1;exitY=0.5;exitDx=0;exitDy=0;entryX=0;entryY=0.5;entryDx=0;entryDy=0;edgeStyle=orthogonalEdgeStyle;" parent="1" target="1MOXpUZB0HtKqHv8TUn5-6" edge="1">
          <mxGeometry width="50" height="50" relative="1" as="geometry">
            <mxPoint x="160" y="140" as="sourcePoint" />
            <mxPoint x="110" y="390" as="targetPoint" />
          </mxGeometry>
        </mxCell>
        <mxCell id="VFu_uMZZZMUcZAeUEX4i-4" value="" style="endArrow=classic;html=1;rounded=0;exitX=1;exitY=0.5;exitDx=0;exitDy=0;entryX=0;entryY=0.5;entryDx=0;entryDy=0;edgeStyle=orthogonalEdgeStyle;" parent="1" target="1MOXpUZB0HtKqHv8TUn5-8" edge="1">
          <mxGeometry width="50" height="50" relative="1" as="geometry">
            <mxPoint x="160" y="140" as="sourcePoint" />
            <mxPoint x="240" y="450" as="targetPoint" />
          </mxGeometry>
        </mxCell>
        <mxCell id="VFu_uMZZZMUcZAeUEX4i-5" value="" style="endArrow=classic;html=1;rounded=0;exitX=1;exitY=0.5;exitDx=0;exitDy=0;entryX=0;entryY=0.5;entryDx=0;entryDy=0;edgeStyle=orthogonalEdgeStyle;" parent="1" target="EsyMe4qFXvNcmVhUbAjS-1" edge="1">
          <mxGeometry width="50" height="50" relative="1" as="geometry">
            <mxPoint x="160" y="140" as="sourcePoint" />
            <mxPoint x="130" y="440" as="targetPoint" />
          </mxGeometry>
        </mxCell>
        <mxCell id="VFu_uMZZZMUcZAeUEX4i-6" value="" style="endArrow=classic;html=1;rounded=0;exitX=1;exitY=0.5;exitDx=0;exitDy=0;entryX=0;entryY=0.5;entryDx=0;entryDy=0;edgeStyle=orthogonalEdgeStyle;" parent="1" target="EsyMe4qFXvNcmVhUbAjS-3" edge="1">
          <mxGeometry width="50" height="50" relative="1" as="geometry">
            <mxPoint x="160" y="140" as="sourcePoint" />
            <mxPoint x="240" y="450" as="targetPoint" />
          </mxGeometry>
        </mxCell>
        <mxCell id="VFu_uMZZZMUcZAeUEX4i-7" value="" style="endArrow=classic;html=1;rounded=0;exitX=1;exitY=0.5;exitDx=0;exitDy=0;entryX=0;entryY=0.5;entryDx=0;entryDy=0;edgeStyle=orthogonalEdgeStyle;" parent="1" target="EsyMe4qFXvNcmVhUbAjS-4" edge="1">
          <mxGeometry width="50" height="50" relative="1" as="geometry">
            <mxPoint x="160" y="140" as="sourcePoint" />
            <mxPoint x="240" y="450" as="targetPoint" />
          </mxGeometry>
        </mxCell>
        <mxCell id="VFu_uMZZZMUcZAeUEX4i-8" value="" style="endArrow=classic;html=1;rounded=0;exitX=1;exitY=0.5;exitDx=0;exitDy=0;entryX=0;entryY=0.5;entryDx=0;entryDy=0;edgeStyle=orthogonalEdgeStyle;" parent="1" target="VFu_uMZZZMUcZAeUEX4i-1" edge="1">
          <mxGeometry width="50" height="50" relative="1" as="geometry">
            <mxPoint x="160" y="140" as="sourcePoint" />
            <mxPoint x="240" y="450" as="targetPoint" />
          </mxGeometry>
        </mxCell>
        <mxCell id="VFu_uMZZZMUcZAeUEX4i-10" value="API Leaderboard fetching (mod filtered)&lt;br&gt;62 total calls" style="rounded=0;whiteSpace=wrap;html=1;fillColor=#f8cecc;strokeColor=#b85450;" parent="1" vertex="1">
          <mxGeometry x="390" y="110" width="130" height="60" as="geometry" />
        </mxCell>
        <mxCell id="33Uc6AIwWsdgjdl9OolC-1" value="" style="endArrow=classic;html=1;rounded=0;exitX=1;exitY=0.5;exitDx=0;exitDy=0;entryX=0;entryY=0.5;entryDx=0;entryDy=0;" parent="1" source="1MOXpUZB0HtKqHv8TUn5-1" target="VFu_uMZZZMUcZAeUEX4i-10" edge="1">
          <mxGeometry width="50" height="50" relative="1" as="geometry">
            <mxPoint x="390" y="400" as="sourcePoint" />
            <mxPoint x="440" y="350" as="targetPoint" />
          </mxGeometry>
        </mxCell>
        <mxCell id="33Uc6AIwWsdgjdl9OolC-2" value="" style="endArrow=classic;html=1;rounded=0;exitX=1;exitY=0.5;exitDx=0;exitDy=0;entryX=0;entryY=0.5;entryDx=0;entryDy=0;edgeStyle=orthogonalEdgeStyle;" parent="1" source="1MOXpUZB0HtKqHv8TUn5-6" target="VFu_uMZZZMUcZAeUEX4i-10" edge="1">
          <mxGeometry width="50" height="50" relative="1" as="geometry">
            <mxPoint x="344" y="150" as="sourcePoint" />
            <mxPoint x="390" y="150" as="targetPoint" />
          </mxGeometry>
        </mxCell>
        <mxCell id="33Uc6AIwWsdgjdl9OolC-3" value="" style="endArrow=classic;html=1;rounded=0;exitX=1;exitY=0.5;exitDx=0;exitDy=0;entryX=0;entryY=0.5;entryDx=0;entryDy=0;edgeStyle=orthogonalEdgeStyle;" parent="1" source="1MOXpUZB0HtKqHv8TUn5-8" target="VFu_uMZZZMUcZAeUEX4i-10" edge="1">
          <mxGeometry width="50" height="50" relative="1" as="geometry">
            <mxPoint x="354" y="160" as="sourcePoint" />
            <mxPoint x="400" y="160" as="targetPoint" />
          </mxGeometry>
        </mxCell>
        <mxCell id="33Uc6AIwWsdgjdl9OolC-4" value="" style="endArrow=classic;html=1;rounded=0;exitX=1;exitY=0.5;exitDx=0;exitDy=0;entryX=0;entryY=0.5;entryDx=0;entryDy=0;edgeStyle=orthogonalEdgeStyle;" parent="1" source="EsyMe4qFXvNcmVhUbAjS-1" target="VFu_uMZZZMUcZAeUEX4i-10" edge="1">
          <mxGeometry width="50" height="50" relative="1" as="geometry">
            <mxPoint x="364" y="170" as="sourcePoint" />
            <mxPoint x="410" y="170" as="targetPoint" />
          </mxGeometry>
        </mxCell>
        <mxCell id="33Uc6AIwWsdgjdl9OolC-5" value="" style="endArrow=classic;html=1;rounded=0;exitX=1;exitY=0.5;exitDx=0;exitDy=0;entryX=0;entryY=0.5;entryDx=0;entryDy=0;edgeStyle=orthogonalEdgeStyle;" parent="1" source="EsyMe4qFXvNcmVhUbAjS-2" target="VFu_uMZZZMUcZAeUEX4i-10" edge="1">
          <mxGeometry width="50" height="50" relative="1" as="geometry">
            <mxPoint x="374" y="180" as="sourcePoint" />
            <mxPoint x="420" y="180" as="targetPoint" />
          </mxGeometry>
        </mxCell>
        <mxCell id="33Uc6AIwWsdgjdl9OolC-6" value="" style="endArrow=classic;html=1;rounded=0;exitX=1;exitY=0.5;exitDx=0;exitDy=0;entryX=0;entryY=0.5;entryDx=0;entryDy=0;edgeStyle=orthogonalEdgeStyle;" parent="1" source="EsyMe4qFXvNcmVhUbAjS-3" target="VFu_uMZZZMUcZAeUEX4i-10" edge="1">
          <mxGeometry width="50" height="50" relative="1" as="geometry">
            <mxPoint x="384" y="190" as="sourcePoint" />
            <mxPoint x="430" y="190" as="targetPoint" />
          </mxGeometry>
        </mxCell>
        <mxCell id="33Uc6AIwWsdgjdl9OolC-7" value="" style="endArrow=classic;html=1;rounded=0;exitX=1;exitY=0.5;exitDx=0;exitDy=0;entryX=0;entryY=0.5;entryDx=0;entryDy=0;edgeStyle=orthogonalEdgeStyle;" parent="1" source="EsyMe4qFXvNcmVhUbAjS-4" target="VFu_uMZZZMUcZAeUEX4i-10" edge="1">
          <mxGeometry width="50" height="50" relative="1" as="geometry">
            <mxPoint x="394" y="200" as="sourcePoint" />
            <mxPoint x="440" y="200" as="targetPoint" />
          </mxGeometry>
        </mxCell>
        <mxCell id="33Uc6AIwWsdgjdl9OolC-8" value="" style="endArrow=classic;html=1;rounded=0;exitX=1;exitY=0.5;exitDx=0;exitDy=0;entryX=0;entryY=0.5;entryDx=0;entryDy=0;edgeStyle=orthogonalEdgeStyle;" parent="1" source="VFu_uMZZZMUcZAeUEX4i-1" target="VFu_uMZZZMUcZAeUEX4i-10" edge="1">
          <mxGeometry width="50" height="50" relative="1" as="geometry">
            <mxPoint x="404" y="210" as="sourcePoint" />
            <mxPoint x="450" y="210" as="targetPoint" />
          </mxGeometry>
        </mxCell>
        <mxCell id="35zVAUorttHJFHjBYy7u-1" value="For each fetched layer" style="rounded=1;whiteSpace=wrap;html=1;fillColor=#d5e8d4;strokeColor=#82b366;" parent="1" vertex="1">
          <mxGeometry x="570" y="110" width="120" height="60" as="geometry" />
        </mxCell>
        <mxCell id="35zVAUorttHJFHjBYy7u-2" value="" style="endArrow=classic;html=1;rounded=0;exitX=1;exitY=0.5;exitDx=0;exitDy=0;entryX=0;entryY=0.5;entryDx=0;entryDy=0;" parent="1" source="VFu_uMZZZMUcZAeUEX4i-10" target="35zVAUorttHJFHjBYy7u-1" edge="1">
          <mxGeometry width="50" height="50" relative="1" as="geometry">
            <mxPoint x="390" y="420" as="sourcePoint" />
            <mxPoint x="440" y="370" as="targetPoint" />
          </mxGeometry>
        </mxCell>
        <mxCell id="-WG7FzssF0f56ukGSCjL-1" value="New Layer&lt;br&gt;Object" style="rounded=0;whiteSpace=wrap;html=1;fillColor=#fff2cc;strokeColor=#d6b656;" parent="1" vertex="1">
          <mxGeometry x="570" y="200" width="120" height="60" as="geometry" />
        </mxCell>
        <mxCell id="-WG7FzssF0f56ukGSCjL-2" value="" style="endArrow=classic;html=1;rounded=0;exitX=0.5;exitY=1;exitDx=0;exitDy=0;entryX=0.5;entryY=0;entryDx=0;entryDy=0;" parent="1" source="35zVAUorttHJFHjBYy7u-1" target="-WG7FzssF0f56ukGSCjL-1" edge="1">
          <mxGeometry width="50" height="50" relative="1" as="geometry">
            <mxPoint x="530" y="150" as="sourcePoint" />
            <mxPoint x="580" y="150" as="targetPoint" />
          </mxGeometry>
        </mxCell>
        <mxCell id="-WG7FzssF0f56ukGSCjL-3" value="Sort by pp" style="rounded=0;whiteSpace=wrap;html=1;fillColor=#fff2cc;strokeColor=#d6b656;" parent="1" vertex="1">
          <mxGeometry x="570" y="290" width="120" height="60" as="geometry" />
        </mxCell>
        <mxCell id="-WG7FzssF0f56ukGSCjL-4" value="" style="endArrow=classic;html=1;rounded=0;exitX=0.5;exitY=1;exitDx=0;exitDy=0;entryX=0.5;entryY=0;entryDx=0;entryDy=0;" parent="1" source="-WG7FzssF0f56ukGSCjL-1" target="-WG7FzssF0f56ukGSCjL-3" edge="1">
          <mxGeometry width="50" height="50" relative="1" as="geometry">
            <mxPoint x="390" y="410" as="sourcePoint" />
            <mxPoint x="440" y="360" as="targetPoint" />
          </mxGeometry>
        </mxCell>
        <mxCell id="x-J6-oy12TYecp7SgfaR-1" value="Deviate pp values" style="rounded=0;whiteSpace=wrap;html=1;fillColor=#fff2cc;strokeColor=#d6b656;" parent="1" vertex="1">
          <mxGeometry x="570" y="380" width="120" height="60" as="geometry" />
        </mxCell>
        <mxCell id="x-J6-oy12TYecp7SgfaR-2" value="" style="endArrow=classic;html=1;rounded=0;exitX=0.5;exitY=1;exitDx=0;exitDy=0;entryX=0.5;entryY=0;entryDx=0;entryDy=0;" parent="1" source="-WG7FzssF0f56ukGSCjL-3" target="x-J6-oy12TYecp7SgfaR-1" edge="1">
          <mxGeometry width="50" height="50" relative="1" as="geometry">
            <mxPoint x="640" y="270" as="sourcePoint" />
            <mxPoint x="640" y="300" as="targetPoint" />
          </mxGeometry>
        </mxCell>
        <mxCell id="x-J6-oy12TYecp7SgfaR-3" value="Convert deviated pp value into a percentile" style="rounded=0;whiteSpace=wrap;html=1;fillColor=#fff2cc;strokeColor=#d6b656;" parent="1" vertex="1">
          <mxGeometry x="570" y="470" width="120" height="60" as="geometry" />
        </mxCell>
        <mxCell id="x-J6-oy12TYecp7SgfaR-4" value="Remove Layer scores outside of the computed percentile" style="rounded=0;whiteSpace=wrap;html=1;fillColor=#fff2cc;strokeColor=#d6b656;" parent="1" vertex="1">
          <mxGeometry x="570" y="560" width="120" height="60" as="geometry" />
        </mxCell>
        <mxCell id="x-J6-oy12TYecp7SgfaR-5" value="" style="endArrow=classic;html=1;rounded=0;exitX=0.5;exitY=1;exitDx=0;exitDy=0;entryX=0.5;entryY=0;entryDx=0;entryDy=0;" parent="1" source="x-J6-oy12TYecp7SgfaR-1" target="x-J6-oy12TYecp7SgfaR-3" edge="1">
          <mxGeometry width="50" height="50" relative="1" as="geometry">
            <mxPoint x="640" y="360" as="sourcePoint" />
            <mxPoint x="640" y="390" as="targetPoint" />
          </mxGeometry>
        </mxCell>
        <mxCell id="x-J6-oy12TYecp7SgfaR-6" value="" style="endArrow=classic;html=1;rounded=0;exitX=0.5;exitY=1;exitDx=0;exitDy=0;entryX=0.5;entryY=0;entryDx=0;entryDy=0;" parent="1" source="x-J6-oy12TYecp7SgfaR-3" target="x-J6-oy12TYecp7SgfaR-4" edge="1">
          <mxGeometry width="50" height="50" relative="1" as="geometry">
            <mxPoint x="640" y="450" as="sourcePoint" />
            <mxPoint x="640" y="480" as="targetPoint" />
          </mxGeometry>
        </mxCell>
        <mxCell id="x-J6-oy12TYecp7SgfaR-8" value="Calculate the average pp value of the remaining scores" style="rounded=0;whiteSpace=wrap;html=1;fillColor=#fff2cc;strokeColor=#d6b656;" parent="1" vertex="1">
          <mxGeometry x="570" y="650" width="120" height="60" as="geometry" />
        </mxCell>
        <mxCell id="x-J6-oy12TYecp7SgfaR-9" value="" style="endArrow=classic;html=1;rounded=0;exitX=0.5;exitY=1;exitDx=0;exitDy=0;entryX=0.5;entryY=0;entryDx=0;entryDy=0;" parent="1" source="x-J6-oy12TYecp7SgfaR-4" target="x-J6-oy12TYecp7SgfaR-8" edge="1">
          <mxGeometry width="50" height="50" relative="1" as="geometry">
            <mxPoint x="640" y="540" as="sourcePoint" />
            <mxPoint x="640" y="570" as="targetPoint" />
          </mxGeometry>
        </mxCell>
        <mxCell id="x-J6-oy12TYecp7SgfaR-10" value="" style="endArrow=classic;html=1;rounded=0;exitX=0.5;exitY=1;exitDx=0;exitDy=0;entryX=0.5;entryY=0;entryDx=0;entryDy=0;" parent="1" source="x-J6-oy12TYecp7SgfaR-8" target="Xba27FxTtK5NExmoXpWR-16" edge="1">
          <mxGeometry width="50" height="50" relative="1" as="geometry">
            <mxPoint x="640" y="630" as="sourcePoint" />
            <mxPoint x="640" y="660" as="targetPoint" />
          </mxGeometry>
        </mxCell>
        <mxCell id="TZYKPa7FNtCpssO6zDO4-3" value="(ex) class Layer" style="swimlane;rounded=0;startSize=30;" parent="1" vertex="1">
          <mxGeometry x="770" y="200" width="130" height="200" as="geometry" />
        </mxCell>
        <mxCell id="TZYKPa7FNtCpssO6zDO4-4" value="&lt;div&gt;type: &#39;layer1&#39;,&lt;/div&gt;&lt;div&gt;stdev: 18.23&lt;/div&gt;&lt;div&gt;percentile: 58&lt;/div&gt;&lt;div&gt;averagePP: 312.87&lt;/div&gt;scores: {&lt;br&gt;&lt;span style=&quot;white-space: pre&quot;&gt; &lt;/span&gt;score: {&lt;br&gt;&lt;span style=&quot;white-space: pre&quot;&gt; &lt;/span&gt;&lt;span style=&quot;white-space: pre&quot;&gt; &lt;/span&gt;pp: 345.23&lt;br&gt;&lt;span style=&quot;white-space: pre&quot;&gt; &lt;/span&gt;},&lt;br&gt;&lt;span style=&quot;white-space: pre&quot;&gt; &lt;/span&gt;score: {...}&lt;br&gt;}" style="whiteSpace=wrap;html=1;rounded=0;align=left;verticalAlign=top;spacingTop=0;spacing=7;" parent="TZYKPa7FNtCpssO6zDO4-3" vertex="1">
          <mxGeometry y="30" width="130" height="170" as="geometry" />
        </mxCell>
        <mxCell id="TZYKPa7FNtCpssO6zDO4-5" value="" style="endArrow=none;dashed=1;html=1;dashPattern=1 3;strokeWidth=2;rounded=0;entryX=1;entryY=0.5;entryDx=0;entryDy=0;exitX=0;exitY=0;exitDx=0;exitDy=0;" parent="1" source="TZYKPa7FNtCpssO6zDO4-4" target="-WG7FzssF0f56ukGSCjL-1" edge="1">
          <mxGeometry width="50" height="50" relative="1" as="geometry">
            <mxPoint x="740" y="230" as="sourcePoint" />
            <mxPoint x="440" y="400" as="targetPoint" />
          </mxGeometry>
        </mxCell>
        <mxCell id="eHyLhiMhPhKfMF8_1Pdk-2" value="" style="shape=image;imageAspect=0;aspect=fixed;verticalLabelPosition=bottom;verticalAlign=top;image=data:image/png,iVBORw0KGgoAAAANSUhEUgAAAP8AAABMCAYAAACiVmERAAAAAXNSR0IArs4c6QAAAARnQU1BAACxjwv8YQUAAAAJcEhZcwAADsMAAA7DAcdvqGQAAAz9SURBVHhe7Z0JyBVVG8eVNEIRJUMpXDIKiTQVy0RRy9IiwQrcUlNcwhTFXRNboKIsaaNcikSxVFCxxC2XjEqswMgNs9z3NTdatKwTv+M53zfOO/feuffO3PGeeX4wvO+cO9udO//nOctznqmkBEFIJSJ+QUgpIn5BSCkifkFIKSJ+QUgpIn5BSCkifkFIKSJ+QUgpIn5BSCkifkFIKSJ+QUgpIn5BSCki/hLw77//qrvvvlutXbvWlAjXOkOHDlUvvPCCWXMTEX8JmDFjhmrVqpVZE8qB/fv3q+rVq6vDhw+bEvcQ8ZeABg0aqPfee8+sCeVC+/bt1aRJk8yae4j4Y+bLL79UlSpVUseOHTMlQrnwzjvvqJtuukn9888/psQtRPwxM2TIENW0aVOz5g6nT59WDz/8sDZsLHzPP/74w3zqBjt37tTfbd26dabELUT8MXPzzTer4cOHmzU3QBS9evXSBgCsIWCxZa5Qu3ZtNXLkSLPmFiL+GPnhhx+051i4cKEpcYO33npLGwAvrDdr1kx98sknpsQNunfvrho1amTW3ELEHyNTp07V4qfn2CVeeuklLXSvAbDen89cwtXfEET8MYLXYLgoDbjq+VetWuVk7Q2uCfH/+OOPqmHDhvpvocyePVt16NBBnT171pQkD0N8rVu3Nmtug+hdbPMfOnRIi3/s2LGmxB0SFz9DYcUK34IBwPtcCwbg4sWL+qHp06ePKXEXvH7nzp0r9AO4QtWqVdWDDz5o1twhUfEj0lq1aqkXX3zRlBQPhuTxxx83a8mBMUP8EydONCVuYtv6GzZsMCXucccddzjZ6Zeo+Pv3769q1qwZqafG+yM6ahRJsmjRIn0d77//vilxD8b1x48f76zHtzzwwAOqcuXK6u+//zYlbhCb+Kn2zpo1Swe4tG3btsIDsm/fPi2OQsdQaWOyP8tHH31kSq+A92/evLlZS4YpU6boa/vss89MiXv4h/yoBaxZs8asucNTTz2lf8tdu3aZEjeIRfy//fabFjXV+ZMnT6qnn35aLV++3Hx6hbffflvf0E8//dSU5M+mTZt0G3/Lli2m5ArUKDg2BiYp+M5cA2P9LsKQnr+qjyGIou/mWoP4fn7L1atXm5Jo+fXXX9XkyZO102IZPXq0OnjwoPk0PmIR/4IFC9Rjjz2mTpw4YUoqQs88N7SYKv/MmTO1Vb5w4YIpuYKt+mNgkqJjx476GrLdg3LFW+vyLv6xf1eYNm2a/n7Tp083JdFx/PhxPYdgz549eg4BTQuMzKOPPqp++eUXs1U8RC5+HvauXbtWqIr74WZi5QoFwSN8qp5+7GQaDFBS8N2qVKli1oRyZunSpfp5imO4D0f5008/mbX/s3LlSu3c4iRS8Z8/f15X9e+77z61d+9eUxoMNxPvXyh4GMbQqfr7sf0JxRy/WG644QYd1y+UPzRveJ769u1rSqKD5tOwYcN089gLfSdBji1KIhE/vb7M6uIG2YUHP0iYYD1zWHFSHSILDmOtN954o65+zZkzRz3xxBPqzJkzZquryef4UcP1cv7bbrvNlAjljJ2jwfMWNXQI16hRQzVu3Fj3i/HsEEo8YcIE3SSIk0g9P0LkBuWqruQjfqr3I0aMUE8++aRuF12+fFlXw1q0aKFefvllnSIrCI7Pkovvv/9eGxS7fa4lzNRVrplt77rrLlMilDM7duzQvyeBTFFDG3/+/Pla/JyDWjOZnxgti5tIxY+n50tk8viWsOJn1IAqEW13rxWkyt+yZcusgSUcnyUJSNzBue+55x5Tkht7vbKUdgmDbUYyZB0HHP+VV17RU79tLQCDEHdcQaTqwOM/8sgj6tSpU6YkmDDix6N/+OGH2hJieb3QHnrooYfU0aNHTUlFch0/Tnbv3q3P365dO1MilDM4Hn7PoNiRYmqOPONLlixRc+fO1UJn/YsvvlD33nuvNgLz5s3LWLONgsjEb3vfn3/+eV01zwU3Ips4ETYCf/PNN6+6AbZ/gbHXTOdJusOPuAPOH0c1USg9dGTzexLmGyUHDhxQY8aMUefOnTMlV0BLzz77rLr//vvVkSNHTGn0RCZ+quKM84aN8OJm3nrrrWatIhyHm+0N4MEIMDSCpaXdn4l8hvriaPNv3LhRb5vkUKMQHX/99Zf+PW+55RZTEg00WxkdC/Lu9J8NGDAg1riJyMRP4Ec+lgqvzA3NFOTD8fxBI99++60eGqHtlS25go0eTCrIh5EJzk+qK8EN+D2ZhxIlPMMIPCi5K+KnQ5t+r7iIRPyXLl3SIYnZquJ+coX34vkZLkRIWF7+fvfdd+rVV1/VobN0iBAWGUTS4b3r16/X5+/Ro4cpEaIAw899ZcE55MI/BB1mn0wwrTdq8ePxadcz7Xvbtm3/i/DbunWreuaZZ9RXX31ltoyHSMSPBcMb55Pl1LbLM03sweI999xzqk6dOto6WiG//vrrqlu3bnrYLxNE11FrSAqMFN+NSEchGhA+i4X/s4kZ4XtnHNpmqfcY+cDvGXW1HxA8zoJp6HTy2dj+UjiuSMSPlyZlVaaAm0zgoZnP79qUXiw31yAdftHAbEE8uDdLEGL2ZhD2w+f+GZUYi0KyDeGI+D1vv/12U+IGRYufagqdFgxR5AuipyoVdTKPpDva7FAfb3wRioeOMX9HKwJG/N4+IS82JNcbC8L/hUw+YuiaYyVZm4yDgsTPTRw4cKCexMNYPFXxQgMS8NAI1qU0XgxT8rDI+/miAY8dJP58MwgV6vmZXsvv2aZNG1PiBgWJH8tJG59EHQy9FRuJhPCLNQAInxGEpIUPdlyYN/MKxROF+HPVFLLB1Fp+z06dOpkSN4ikzS9cDcaQh6WQoBAeUl7qOW7cuKse9rSB4LmH1OTInV+M+NnW32eQDzZoy7W4DRF/TDA0VL9+fbMWDoZJeSc8QUf+h72U4B0RHQ88Sz5Va/AOyRXauw6cF4GvWLEiUPxhPHmxwgc7etO7d29T4gYi/pioV6+eqlatmlnLDwSTlPgRkzcNN6LJx8OyrVfweHCWQuA4LEFC5/9svf0QtA0jU9n2CQLjg/gZgnMJEX9M2AjGTIFI2UhS/FZwXhB+mOvx74v4qEEUIn7OxTntvt5j+z8DrpH7bY2UPTdl3qWQ+8qENfZ1LROziD8mBg0apB+YzZs3m5Lw8JAnIX7ruf1eHiHleimHFVuYGkIYgs7JfbEi9hqZuCG5Juf8/PPPTYkbiPhjgjBkHphly5aZkvAEiZ80TzbDK30ChDj7M7yy/bvvvqvng7MdGY/ySQqRScCZjIIXvDDb/Pzzz/ov351jZTMYfqy42Z8AHf7mW0WPg379+unrktTdQih4sSMPTCEZX/3iZz45EZQIgpEE4ggQP8OtNgyUzsI33nhDDR48WEdaMi106NCh+hpYFi9erLfLRjHi55rZl+u2gmX7MAbAHt96c3sddj1peGnHddddF3reSrkg4o8Jm/eNyU754hc/mZD9KcqtQGy+AysgbzuYjErkPQwbJ55L/Nna7lb8XqFz/XyPbCIO2ibM+UoJYb0u5mMU8ccEwUaIv5CMr17xW3F4jQH8/vvv2svbchJCMOHJmz8xk5gzkUv8uTw/27Ctl0zlFttc8H4etsZQKkjB7uI8DRF/jNDuLiTEN0j8CB3BW2w5OQ7//PNPXUZTo0uXLrptSlv/gw8+uKppkItM4g9jRIJEDNnEb7+D18PbsmwGo5QcPnxYG3HXhvlAxB8jPXv2VNdff71ZC49X/ED+9jvvvFNt375dr4NNm+Z9OQqzz0ijRhuV6aH0E+QTMo3YEF2Q+MP09vu3sULm+wQRZFTo1+A4mfYpNbw8A/FjWF1DxB8jiJYHJ59eYjr0yNlOqnI7RZrsSAiCTj46+5gDThozxG2zGtPuJyyYbEfFgOj8wsMze41RJvxGC1Fn8+DW2FjPz19qKxyDe8eksaR57bXX9G9YinfnlRoRf4wwxs+DQ9ahMFhPyT4sXuHw8CF+hvloTjDs533LC4aCKr/d1y5szwMcdsjP742DagP2OoPa5RgAe+5swrcgeLs9/9vzhdm3FPAeChffzQ8i/pghzJcht7hhGIq3GFHdt2KyC2X51AisAbD7+5sBaQLjOWrUKLPmFiL+mMFDMvU5bmjvf/zxxxUSPto0Uf53Hwi5wQhi/PJJT1dOiPhj5uuvv9YPUFCG1iihvU+CFbII2fwKCJ8XppJKvNicC2mEJLN169bV99FFRPwlgCAR3sEeJ7T/advzDkOMDdVVOg2/+eYbZx/euGGYNMoUc9caIv4SQHpmhuqE8oEqP/klC5mVWS6I+EtEkyZNQr/NSEgeRlaYnOUyIn5BSCkifkFIKSJ+QUgpIn5BSCkifkFIKSJ+QUgpIn5BSCkifkFIKSJ+QUgpIn5BSCkifkFIKSJ+QUgpIn5BSCkifkFIJUr9B/pSg5bp22JQAAAAAElFTkSuQmCC;" parent="1" vertex="1">
          <mxGeometry x="780" y="464.23" width="240" height="71.53" as="geometry" />
        </mxCell>
        <mxCell id="eHyLhiMhPhKfMF8_1Pdk-4" value="" style="endArrow=none;dashed=1;html=1;dashPattern=1 3;strokeWidth=2;rounded=0;exitX=1;exitY=0.5;exitDx=0;exitDy=0;entryX=0;entryY=0.5;entryDx=0;entryDy=0;" parent="1" source="x-J6-oy12TYecp7SgfaR-3" target="eHyLhiMhPhKfMF8_1Pdk-3" edge="1">
          <mxGeometry width="50" height="50" relative="1" as="geometry">
            <mxPoint x="790" y="520" as="sourcePoint" />
            <mxPoint x="840" y="470" as="targetPoint" />
          </mxGeometry>
        </mxCell>
      </root>
    </mxGraphModel>
  </diagram>
  <diagram id="un1P7AQ24OeHcoaCZsYH" name="Page-4">
    <mxGraphModel dx="1379" dy="804" grid="1" gridSize="10" guides="1" tooltips="1" connect="1" arrows="1" fold="1" page="1" pageScale="1" pageWidth="827" pageHeight="1169" math="0" shadow="0">
      <root>
        <mxCell id="0" />
        <mxCell id="1" parent="0" />
        <mxCell id="6PcmH7zUATAWxSpcanLQ-21" style="edgeStyle=orthogonalEdgeStyle;rounded=0;orthogonalLoop=1;jettySize=auto;html=1;exitX=1;exitY=0.5;exitDx=0;exitDy=0;entryX=0;entryY=0.5;entryDx=0;entryDy=0;" parent="1" source="6PcmH7zUATAWxSpcanLQ-1" target="6PcmH7zUATAWxSpcanLQ-18" edge="1">
          <mxGeometry relative="1" as="geometry" />
        </mxCell>
        <mxCell id="6PcmH7zUATAWxSpcanLQ-1" value="Beatmap queue" style="rounded=1;whiteSpace=wrap;html=1;fillColor=#d5e8d4;strokeColor=#82b366;" parent="1" vertex="1">
          <mxGeometry x="90" y="210" width="120" height="60" as="geometry" />
        </mxCell>
        <mxCell id="6PcmH7zUATAWxSpcanLQ-9" style="edgeStyle=orthogonalEdgeStyle;rounded=0;orthogonalLoop=1;jettySize=auto;html=1;exitX=0.5;exitY=0;exitDx=0;exitDy=0;entryX=0.5;entryY=1;entryDx=0;entryDy=0;" parent="1" source="6PcmH7zUATAWxSpcanLQ-2" target="6PcmH7zUATAWxSpcanLQ-1" edge="1">
          <mxGeometry relative="1" as="geometry" />
        </mxCell>
        <mxCell id="6PcmH7zUATAWxSpcanLQ-2" value="id" style="rounded=0;whiteSpace=wrap;html=1;" parent="1" vertex="1">
          <mxGeometry x="130" y="300" width="40" height="30" as="geometry" />
        </mxCell>
        <mxCell id="6PcmH7zUATAWxSpcanLQ-3" value="id" style="rounded=0;whiteSpace=wrap;html=1;" parent="1" vertex="1">
          <mxGeometry x="130" y="310" width="40" height="30" as="geometry" />
        </mxCell>
        <mxCell id="6PcmH7zUATAWxSpcanLQ-4" value="id" style="rounded=0;whiteSpace=wrap;html=1;" parent="1" vertex="1">
          <mxGeometry x="130" y="320" width="40" height="30" as="geometry" />
        </mxCell>
        <mxCell id="6PcmH7zUATAWxSpcanLQ-5" value="id" style="rounded=0;whiteSpace=wrap;html=1;" parent="1" vertex="1">
          <mxGeometry x="130" y="330" width="40" height="30" as="geometry" />
        </mxCell>
        <mxCell id="6PcmH7zUATAWxSpcanLQ-6" value="id" style="rounded=0;whiteSpace=wrap;html=1;" parent="1" vertex="1">
          <mxGeometry x="130" y="340" width="40" height="30" as="geometry" />
        </mxCell>
        <mxCell id="6PcmH7zUATAWxSpcanLQ-7" value="id" style="rounded=0;whiteSpace=wrap;html=1;" parent="1" vertex="1">
          <mxGeometry x="120" y="350" width="40" height="30" as="geometry" />
        </mxCell>
        <mxCell id="6PcmH7zUATAWxSpcanLQ-10" value="Beatmaps" style="rounded=1;whiteSpace=wrap;html=1;fillColor=#d5e8d4;strokeColor=#82b366;" parent="1" vertex="1">
          <mxGeometry x="280" y="210" width="120" height="60" as="geometry" />
        </mxCell>
        <mxCell id="6PcmH7zUATAWxSpcanLQ-17" style="edgeStyle=orthogonalEdgeStyle;rounded=0;orthogonalLoop=1;jettySize=auto;html=1;exitX=0.5;exitY=0;exitDx=0;exitDy=0;entryX=0.5;entryY=1;entryDx=0;entryDy=0;" parent="1" source="6PcmH7zUATAWxSpcanLQ-11" target="6PcmH7zUATAWxSpcanLQ-10" edge="1">
          <mxGeometry relative="1" as="geometry" />
        </mxCell>
        <mxCell id="6PcmH7zUATAWxSpcanLQ-11" value="id" style="rounded=0;whiteSpace=wrap;html=1;" parent="1" vertex="1">
          <mxGeometry x="320" y="300" width="40" height="30" as="geometry" />
        </mxCell>
        <mxCell id="6PcmH7zUATAWxSpcanLQ-12" value="id" style="rounded=0;whiteSpace=wrap;html=1;" parent="1" vertex="1">
          <mxGeometry x="320" y="310" width="40" height="30" as="geometry" />
        </mxCell>
        <mxCell id="6PcmH7zUATAWxSpcanLQ-13" value="id" style="rounded=0;whiteSpace=wrap;html=1;" parent="1" vertex="1">
          <mxGeometry x="320" y="320" width="40" height="30" as="geometry" />
        </mxCell>
        <mxCell id="6PcmH7zUATAWxSpcanLQ-14" value="id" style="rounded=0;whiteSpace=wrap;html=1;" parent="1" vertex="1">
          <mxGeometry x="320" y="330" width="40" height="30" as="geometry" />
        </mxCell>
        <mxCell id="6PcmH7zUATAWxSpcanLQ-15" value="id" style="rounded=0;whiteSpace=wrap;html=1;" parent="1" vertex="1">
          <mxGeometry x="320" y="340" width="40" height="30" as="geometry" />
        </mxCell>
        <mxCell id="6PcmH7zUATAWxSpcanLQ-16" value="id" style="rounded=0;whiteSpace=wrap;html=1;" parent="1" vertex="1">
          <mxGeometry x="310" y="350" width="40" height="30" as="geometry" />
        </mxCell>
        <mxCell id="6PcmH7zUATAWxSpcanLQ-19" style="edgeStyle=orthogonalEdgeStyle;rounded=0;orthogonalLoop=1;jettySize=auto;html=1;exitX=0.5;exitY=0;exitDx=0;exitDy=0;entryX=0.75;entryY=1;entryDx=0;entryDy=0;" parent="1" source="6PcmH7zUATAWxSpcanLQ-18" target="6PcmH7zUATAWxSpcanLQ-16" edge="1">
          <mxGeometry relative="1" as="geometry" />
        </mxCell>
        <mxCell id="6PcmH7zUATAWxSpcanLQ-18" value="Beatmap object" style="rounded=0;whiteSpace=wrap;html=1;fillColor=#f8cecc;strokeColor=#b85450;" parent="1" vertex="1">
          <mxGeometry x="300" y="420" width="80" height="60" as="geometry" />
        </mxCell>
        <mxCell id="AC4xDcHzGfcLzi9IYkTh-1" value="Beatmap" style="swimlane;rounded=0;startSize=30;" parent="1" vertex="1">
          <mxGeometry x="275" y="530" width="130" height="130" as="geometry" />
        </mxCell>
        <mxCell id="AC4xDcHzGfcLzi9IYkTh-2" value="id&lt;br&gt;formatted name&lt;br&gt;difficulty stats&lt;br&gt;&lt;br&gt;Layers: {}&lt;br&gt;&lt;br&gt;&lt;br&gt;&lt;br&gt;&lt;div&gt;&lt;/div&gt;" style="whiteSpace=wrap;html=1;rounded=0;align=left;verticalAlign=top;spacingTop=0;spacing=7;" parent="AC4xDcHzGfcLzi9IYkTh-1" vertex="1">
          <mxGeometry y="30" width="130" height="100" as="geometry" />
        </mxCell>
        <mxCell id="AC4xDcHzGfcLzi9IYkTh-3" value="" style="endArrow=none;dashed=1;html=1;dashPattern=1 3;strokeWidth=2;rounded=0;exitX=0.5;exitY=0;exitDx=0;exitDy=0;entryX=0.5;entryY=1;entryDx=0;entryDy=0;" parent="1" source="AC4xDcHzGfcLzi9IYkTh-1" target="6PcmH7zUATAWxSpcanLQ-18" edge="1">
          <mxGeometry width="50" height="50" relative="1" as="geometry">
            <mxPoint x="270" y="420" as="sourcePoint" />
            <mxPoint x="320" y="370" as="targetPoint" />
          </mxGeometry>
        </mxCell>
        <mxCell id="AC4xDcHzGfcLzi9IYkTh-6" style="edgeStyle=orthogonalEdgeStyle;rounded=0;orthogonalLoop=1;jettySize=auto;html=1;entryX=1;entryY=1;entryDx=0;entryDy=0;" parent="1" source="AC4xDcHzGfcLzi9IYkTh-4" target="6PcmH7zUATAWxSpcanLQ-16" edge="1">
          <mxGeometry relative="1" as="geometry">
            <mxPoint x="420" y="400" as="targetPoint" />
          </mxGeometry>
        </mxCell>
        <mxCell id="AC4xDcHzGfcLzi9IYkTh-4" value="Score object" style="rounded=0;whiteSpace=wrap;html=1;fillColor=#f8cecc;strokeColor=#b85450;" parent="1" vertex="1">
          <mxGeometry x="440" y="310" width="80" height="60" as="geometry" />
        </mxCell>
        <mxCell id="AC4xDcHzGfcLzi9IYkTh-7" value="Score" style="swimlane;rounded=0;startSize=30;" parent="1" vertex="1">
          <mxGeometry x="415" y="440" width="130" height="120" as="geometry" />
        </mxCell>
        <mxCell id="AC4xDcHzGfcLzi9IYkTh-8" value="id&lt;br&gt;user&lt;br&gt;pp&lt;br&gt;uniqueness&lt;br&gt;&lt;br&gt;&lt;br&gt;&lt;br&gt;&lt;div&gt;&lt;/div&gt;" style="whiteSpace=wrap;html=1;rounded=0;align=left;verticalAlign=top;spacingTop=0;spacing=7;" parent="AC4xDcHzGfcLzi9IYkTh-7" vertex="1">
          <mxGeometry y="30" width="130" height="90" as="geometry" />
        </mxCell>
        <mxCell id="AC4xDcHzGfcLzi9IYkTh-9" value="" style="endArrow=none;dashed=1;html=1;dashPattern=1 3;strokeWidth=2;rounded=0;exitX=0.5;exitY=0;exitDx=0;exitDy=0;entryX=0.5;entryY=1;entryDx=0;entryDy=0;" parent="1" source="AC4xDcHzGfcLzi9IYkTh-7" target="AC4xDcHzGfcLzi9IYkTh-4" edge="1">
          <mxGeometry width="50" height="50" relative="1" as="geometry">
            <mxPoint x="270" y="420" as="sourcePoint" />
            <mxPoint x="320" y="370" as="targetPoint" />
          </mxGeometry>
        </mxCell>
      </root>
    </mxGraphModel>
  </diagram>
</mxfile>
